<?xml version="1.0" standalone="no"?>
<!DOCTYPE svg PUBLIC "-//W3C//DTD SVG 20010904//EN"
 "http://www.w3.org/TR/2001/REC-SVG-20010904/DTD/svg10.dtd">
<svg version="1.0" xmlns="http://www.w3.org/2000/svg"
 width="600.000000pt" height="450.000000pt" viewBox="0 0 600.000000 450.000000"
 preserveAspectRatio="xMidYMid meet">

<g transform="translate(0.000000,450.000000) scale(0.100000,-0.100000)"
fill="#000000" stroke="none">
<path d="M2249 3417 c60 -62 111 -87 301 -146 90 -29 166 -54 169 -56 15 -15
-23 -8 -183 36 -99 27 -181 47 -183 46 -2 -2 6 -16 18 -30 38 -49 97 -74 224
-97 66 -12 129 -25 140 -30 l20 -9 -20 0 c-11 0 -67 6 -125 14 -58 8 -114 15
-124 15 -19 0 -19 0 0 -21 29 -32 83 -56 187 -83 105 -28 178 -56 161 -63 -7
-2 -137 0 -290 6 l-277 10 -37 40 -38 41 -86 0 c-101 0 -101 0 -59 -97 l27
-62 51 -6 c27 -3 186 -16 353 -29 166 -13 305 -26 308 -29 6 -6 -108 -238
-138 -279 -11 -16 -25 -28 -33 -28 -7 0 -80 37 -162 83 -81 46 -179 101 -218
122 -38 21 -211 116 -382 211 -172 96 -318 174 -324 174 -24 0 1 -26 52 -56
30 -17 264 -147 521 -289 l467 -258 -15 -28 c-8 -15 -14 -39 -14 -53 0 -22 3
-24 38 -19 28 4 44 0 62 -15 l25 -20 5 -279 c5 -251 7 -281 24 -306 10 -15 27
-32 37 -37 24 -13 189 -13 189 0 0 6 -3 10 -8 10 -4 0 -14 15 -22 33 -11 23
-15 62 -13 137 1 96 3 106 25 124 12 11 16 17 7 14 -13 -5 -15 -1 -11 20 5 24
6 24 18 7 21 -28 66 -55 94 -55 40 0 90 32 109 70 10 19 34 82 52 140 19 58
37 107 40 110 4 3 13 21 22 41 24 59 64 116 102 145 34 26 36 26 55 9 12 -10
20 -13 20 -7 0 7 -4 12 -10 12 -5 0 -10 4 -10 10 0 5 -31 66 -69 135 -38 69
-68 125 -67 125 54 0 732 62 736 67 12 15 50 116 50 134 0 17 -9 19 -82 19
l-82 0 -42 -41 -41 -41 -283 -9 c-155 -6 -285 -7 -288 -5 -9 9 60 34 172 62
82 20 119 35 156 63 27 20 45 37 41 39 -5 2 -62 -4 -127 -13 -206 -26 -212
-17 -13 21 84 16 149 34 174 49 42 24 92 72 84 80 -3 2 -86 -18 -184 -45 -157
-42 -201 -51 -184 -36 2 1 90 31 194 65 165 53 197 67 246 106 31 25 59 51 62
58 3 9 -85 -15 -246 -66 -139 -43 -277 -87 -307 -96 l-54 -17 -1 -57 c-1 -48
-6 -62 -30 -87 -37 -38 -93 -50 -112 -25 -7 11 -13 28 -13 38 0 26 48 89 61
81 7 -4 9 5 7 22 -4 36 -25 42 -38 10 -5 -14 -15 -26 -21 -26 -6 0 -9 7 -5 15
10 26 -13 16 -59 -26 -33 -30 -45 -49 -45 -69 0 -45 -10 -60 -39 -60 -32 0
-86 32 -101 60 -7 12 -10 44 -8 71 l3 49 -75 24 c-41 14 -163 52 -270 86 -202
63 -231 73 -265 85 -13 5 -4 -9 24 -38z"/>
<path d="M4485 3130 c-4 -6 -11 -7 -17 -4 -7 4 -8 2 -4 -5 6 -9 11 -9 22 0 14
11 18 19 10 19 -3 0 -8 -5 -11 -10z"/>
<path d="M4378 3078 c-9 -5 -6 -7 9 -5 12 2 25 6 28 8 8 9 -23 6 -37 -3z"/>
<path d="M4336 3043 c-6 -14 -5 -15 5 -6 7 7 10 15 7 18 -3 3 -9 -2 -12 -12z"/>
<path d="M1623 3008 c-26 -29 -57 -78 -52 -82 2 -2 23 -13 47 -25 23 -12 42
-26 42 -31 0 -17 -54 -120 -62 -120 -5 0 -26 9 -48 20 -22 11 -43 20 -48 20
-4 0 -16 -24 -26 -52 -11 -29 -22 -57 -26 -62 -5 -4 -28 4 -52 18 -25 14 -49
26 -55 26 -8 0 -53 -94 -53 -112 0 -3 25 -20 55 -37 60 -34 60 -30 12 -118
l-17 -32 43 -26 c24 -14 48 -25 53 -25 5 0 23 25 39 55 17 30 32 54 35 52 3
-1 26 -13 53 -27 26 -13 47 -28 47 -33 0 -17 -53 -107 -63 -107 -6 0 -31 12
-56 27 l-45 26 -38 -44 c-21 -24 -38 -47 -38 -50 0 -3 23 -18 52 -34 l51 -28
28 30 c15 17 32 39 37 49 10 18 13 18 60 -8 28 -16 52 -28 55 -28 9 0 45 63
52 91 6 23 1 28 -39 50 -25 13 -46 29 -46 36 0 11 37 104 45 111 1 2 25 -8 53
-22 l50 -25 21 58 c11 32 21 62 21 68 0 13 -91 56 -100 46 -4 -4 -16 -30 -25
-58 -10 -27 -20 -52 -21 -53 -2 -2 -26 8 -54 24 -30 16 -54 24 -59 18 -4 -5
-16 -30 -25 -56 -10 -27 -23 -48 -28 -48 -6 0 -30 11 -53 25 l-42 24 21 61
c11 33 25 60 31 60 5 0 28 -11 50 -25 44 -27 55 -30 55 -15 0 5 9 34 21 64
l20 56 49 -25 c27 -14 53 -25 58 -25 4 0 21 27 37 61 31 67 33 62 -38 100 -41
22 -41 22 10 86 l33 42 -43 25 c-53 32 -58 32 -84 4z"/>
<path d="M4298 3023 c7 -3 16 -2 19 1 4 3 -2 6 -13 5 -11 0 -14 -3 -6 -6z"/>
<path d="M4322 3003 l-43 -26 24 -26 c13 -14 32 -38 41 -53 l17 -26 -50 -28
c-28 -15 -51 -31 -51 -35 0 -18 55 -119 65 -119 5 0 30 12 54 25 24 14 46 23
50 20 3 -3 15 -33 27 -66 l22 -60 -54 -30 c-30 -17 -54 -34 -54 -37 0 -4 9
-31 20 -60 11 -29 20 -56 20 -60 0 -4 -20 -18 -45 -30 -27 -13 -45 -29 -45
-38 0 -20 47 -104 58 -104 4 0 27 12 52 26 l45 26 41 -47 40 -47 40 21 c72 38
71 34 29 85 -21 26 -36 48 -34 50 2 2 25 15 51 30 l48 28 -23 41 c-41 78 -42
74 19 108 30 18 53 37 51 43 -2 6 -12 35 -22 63 l-19 53 -54 -31 c-30 -17 -58
-27 -62 -22 -3 4 -16 34 -28 65 l-21 57 55 31 c29 17 54 36 54 41 0 14 -48
107 -59 113 -9 6 -96 -38 -105 -53 -3 -4 8 -33 24 -65 17 -32 27 -62 24 -67
-6 -10 -79 -49 -91 -49 -12 0 -66 117 -59 128 3 5 23 17 46 27 22 10 40 23 40
28 0 16 -70 97 -83 97 -7 -1 -31 -12 -55 -27z m285 -403 l22 -60 -22 -14 c-12
-8 -34 -20 -49 -27 -34 -15 -34 -22 -3 -78 14 -23 25 -47 25 -51 0 -9 -83 -60
-98 -60 -9 0 -62 91 -62 107 0 6 18 18 40 28 62 28 65 36 41 101 -12 31 -19
59 -16 62 11 11 80 50 90 51 6 1 20 -26 32 -59z"/>
<path d="M1415 2930 c-32 -66 -32 -65 36 -104 l47 -27 31 67 c17 37 30 68 29
69 -17 11 -102 55 -107 55 -4 0 -20 -27 -36 -60z"/>
<path d="M4134 2944 c-19 -15 -19 -15 1 -6 11 5 27 12 35 15 13 5 13 6 -1 6
-8 1 -24 -6 -35 -15z"/>
<path d="M1815 2863 c-19 -25 -32 -50 -28 -53 5 -4 28 -19 53 -32 l45 -26 42
54 42 53 -46 25 c-25 14 -51 26 -59 26 -7 0 -29 -21 -49 -47z"/>
<path d="M4102 2883 l-44 -25 25 -27 c13 -14 32 -38 42 -54 l18 -27 46 26 c25
15 49 30 54 34 12 10 -62 100 -81 99 -9 -1 -36 -12 -60 -26z"/>
<path d="M4024 2882 c3 -5 0 -13 -6 -15 -9 -4 -10 -6 -1 -6 17 -1 25 16 12 25
-7 4 -9 3 -5 -4z"/>
<path d="M3970 2850 c-8 -5 -10 -10 -5 -10 6 0 17 5 25 10 8 5 11 10 5 10 -5
0 -17 -5 -25 -10z"/>
<path d="M3885 2810 c-3 -5 0 -12 6 -16 8 -5 9 -3 4 6 -6 10 -4 12 8 7 9 -3
18 -3 21 1 3 4 -4 8 -14 9 -11 1 -22 -2 -25 -7z"/>
<path d="M3775 2740 c-4 -6 -10 -8 -15 -5 -5 3 -11 1 -14 -4 -12 -19 10 -19
34 0 14 10 20 19 13 19 -6 0 -15 -5 -18 -10z"/>
<path d="M3658 2678 c-9 -5 -6 -7 9 -5 12 2 25 6 28 8 8 9 -23 6 -37 -3z"/>
<path d="M4263 2647 c-24 -11 -43 -25 -43 -30 0 -6 10 -36 21 -68 l21 -58 50
25 c45 23 50 28 45 52 -8 39 -36 102 -45 101 -4 0 -26 -10 -49 -22z"/>
<path d="M3598 2643 c7 -3 16 -2 19 1 4 3 -2 6 -13 5 -11 0 -14 -3 -6 -6z"/>
<path d="M3577 2629 c7 -7 15 -10 18 -7 3 3 -2 9 -12 12 -14 6 -15 5 -6 -5z"/>
<path d="M3434 2588 c-4 -6 -3 -8 4 -4 5 3 12 1 14 -6 3 -8 6 -9 11 -1 4 6 0
13 -8 17 -8 3 -17 0 -21 -6z"/>
<path d="M3490 2579 c0 -5 5 -7 10 -4 6 3 10 8 10 11 0 2 -4 4 -10 4 -5 0 -10
-5 -10 -11z"/>
<path d="M2103 2563 c-48 -34 -120 -694 -83 -763 24 -45 209 -65 247 -27 8 8
22 59 32 113 l17 99 60 0 c32 0 93 -3 134 -6 l75 -7 -129 41 -128 41 5 54 c3
30 7 56 9 58 2 2 69 9 149 16 l144 13 -143 7 c-79 3 -146 9 -149 12 -3 3 -3
16 0 28 5 18 35 39 121 83 63 33 113 61 111 63 -1 2 -48 -9 -103 -23 -55 -14
-105 -25 -110 -25 -5 0 -12 35 -15 79 -6 93 -16 115 -59 131 -42 14 -169 24
-185 13z"/>
<path d="M3759 2555 c-26 -7 -51 -15 -57 -19 -15 -9 -32 -97 -32 -161 0 -30
-2 -55 -3 -55 -2 0 -37 8 -78 19 -41 10 -87 21 -104 25 -16 4 21 -21 83 -54
102 -56 112 -63 112 -89 0 -37 -15 -41 -154 -41 -60 0 -107 -2 -105 -4 2 -2
60 -10 129 -16 69 -7 128 -15 131 -18 4 -4 9 -30 13 -59 l6 -51 -117 -41 c-65
-23 -102 -39 -83 -37 19 3 73 8 120 11 l86 7 18 -96 c10 -55 25 -101 34 -108
9 -8 44 -13 96 -13 63 0 89 5 116 21 35 20 35 21 38 100 6 133 -32 517 -60
619 -18 62 -33 75 -92 74 -28 0 -72 -7 -97 -14z"/>
<path d="M3486 2553 c7 -4 14 -17 17 -28 5 -16 5 -15 4 4 -1 14 -9 26 -17 28
-10 3 -11 2 -4 -4z"/>
<path d="M3450 2530 c-12 -7 -10 -9 8 -7 12 0 22 5 22 9 0 11 -12 10 -30 -2z"/>
<path d="M1186 2436 c-20 -24 -36 -46 -36 -48 0 -2 25 -17 55 -33 l55 -30 35
40 c19 22 34 45 34 50 1 8 -90 65 -103 65 -2 0 -20 -20 -40 -44z"/>
<path d="M4747 2452 c-29 -17 -45 -32 -42 -41 8 -20 48 -69 63 -75 10 -5 79
27 111 50 5 4 -70 94 -78 94 -3 0 -27 -13 -54 -28z"/>
<path d="M3366 2433 c-6 -14 -5 -15 5 -6 7 7 10 15 7 18 -3 3 -9 -2 -12 -12z"/>
<path d="M3181 2224 c0 -11 3 -14 6 -6 3 7 2 16 -1 19 -3 4 -6 -2 -5 -13z"/>
<path d="M3165 2179 c-4 -6 -5 -12 -2 -15 2 -3 7 2 10 11 7 17 1 20 -8 4z"/>
<path d="M2988 2023 c7 -3 16 -2 19 1 4 3 -2 6 -13 5 -11 0 -14 -3 -6 -6z"/>
<path d="M3305 1850 c-3 -5 -3 -10 0 -10 4 0 0 -7 -9 -15 -8 -8 -19 -15 -25
-15 -5 0 -12 -4 -16 -10 -3 -5 7 -5 25 1 16 6 30 14 31 17 0 4 2 15 4 25 4 19
-1 22 -10 7z"/>
<path d="M2675 1510 c-4 -7 117 -10 354 -10 234 0 361 4 361 10 0 6 -125 10
-354 10 -226 0 -357 -4 -361 -10z"/>
<path d="M2128 1492 c12 -11 22 -25 22 -31 0 -14 33 -31 62 -32 23 -1 23 -1
-2 -9 l-25 -7 28 -12 c15 -6 39 -14 52 -17 24 -6 25 -10 25 -80 0 -67 2 -74
20 -74 17 0 20 7 20 45 l0 45 60 0 60 0 0 -45 c0 -33 4 -45 15 -45 12 0 15 19
15 115 0 96 -3 115 -15 115 -11 0 -15 -12 -15 -50 l0 -50 -60 0 -60 0 0 50 c0
43 -3 50 -19 50 -12 0 -21 -8 -24 -22 -4 -21 -4 -21 -6 -2 -1 19 -29 31 -161
71 -8 3 -5 -4 8 -15z"/>
<path d="M3860 1481 c-53 -20 -76 -33 -78 -47 -7 -35 -22 -39 -22 -6 0 22 -5
32 -15 32 -12 0 -15 -13 -15 -58 0 -32 -3 -62 -6 -65 -4 -4 -37 20 -74 53 -37
33 -70 60 -74 60 -3 0 -6 -49 -6 -110 0 -103 1 -110 20 -110 18 0 20 7 20 65
0 36 3 65 6 65 3 0 36 -27 72 -60 l67 -60 3 57 c2 31 8 63 13 70 6 6 33 19 60
28 27 9 49 21 49 27 0 5 10 18 23 28 l22 19 -25 -5 c-21 -4 -19 -3 6 9 30 14
54 38 37 36 -4 0 -42 -13 -83 -28z m0 -31 c-8 -5 -19 -10 -25 -10 -5 0 -3 5 5
10 8 5 20 10 25 10 6 0 3 -5 -5 -10z m7 -26 c-3 -3 -12 -4 -19 -1 -8 3 -5 6 6
6 11 1 17 -2 13 -5z"/>
<path d="M2550 1345 l0 -116 77 3 c64 3 77 6 79 21 2 14 -6 17 -57 17 -56 0
-59 1 -59 25 0 24 3 25 60 25 53 0 60 2 60 20 0 18 -7 20 -60 20 -60 0 -60 0
-60 30 0 28 1 29 57 32 44 2 57 7 59 21 2 15 -7 17 -77 17 l-79 0 0 -115z"/>
<path d="M2770 1345 l0 -115 75 0 c102 0 112 10 113 119 0 102 -9 111 -115
111 l-73 0 0 -115z m154 60 c12 -33 -4 -45 -60 -45 -53 0 -54 0 -54 30 0 30 1
30 54 30 39 0 55 -4 60 -15z m-1 -99 c9 -23 -15 -36 -65 -36 -45 0 -48 2 -48
25 0 24 3 25 54 25 37 0 56 -4 59 -14z"/>
<path d="M3020 1345 c0 -108 1 -115 20 -115 17 0 20 7 20 40 0 39 1 40 35 40
30 0 37 -5 55 -40 14 -27 27 -40 40 -40 20 0 20 0 0 40 l-20 40 20 20 c30 30
27 83 -6 109 -21 17 -41 21 -95 21 l-69 0 0 -115z m151 59 c23 -27 -1 -49 -60
-52 l-51 -3 0 35 0 36 49 0 c32 0 53 -5 62 -16z"/>
<path d="M3360 1453 c-27 -10 -59 -46 -70 -78 -19 -58 25 -129 87 -141 68 -13
133 39 133 105 0 83 -76 141 -150 114z m88 -53 c48 -45 14 -130 -50 -130 -36
0 -78 40 -78 75 0 35 42 75 78 75 15 0 38 -9 50 -20z"/>
<path d="M1950 1180 c0 -7 356 -10 1049 -10 689 0 1052 3 1056 10 4 7 -348 10
-1049 10 -697 0 -1056 -3 -1056 -10z"/>
<path d="M2566 1114 c-9 -8 -16 -22 -16 -29 0 -19 28 -45 49 -45 40 0 57 61
22 80 -27 14 -37 13 -55 -6z m53 -18 c9 -10 8 -16 -4 -26 -17 -14 -45 -7 -45
13 0 29 30 37 49 13z"/>
<path d="M2660 1120 c0 -5 6 -10 14 -10 10 0 16 -13 19 -37 l4 -38 1 38 c1 25
7 37 17 37 8 0 15 5 15 10 0 6 -16 10 -35 10 -19 0 -35 -4 -35 -10z"/>
<path d="M2766 1114 c-9 -8 -16 -21 -16 -28 0 -17 33 -46 51 -46 39 0 54 61
20 80 -27 14 -37 13 -55 -6z m53 -18 c9 -10 8 -16 -4 -26 -17 -14 -45 -7 -45
13 0 29 30 37 49 13z"/>
<path d="M2871 1083 c1 -26 3 -40 6 -30 5 21 31 23 39 2 11 -28 21 -15 20 28
-1 40 -3 42 -33 45 l-33 3 1 -48z m59 17 c0 -5 -11 -10 -25 -10 -14 0 -25 5
-25 10 0 6 11 10 25 10 14 0 25 -4 25 -10z"/>
<path d="M3074 1115 c-8 -21 4 -35 32 -35 13 0 24 -4 24 -10 0 -5 -13 -10 -30
-10 -16 0 -30 -5 -30 -11 0 -6 14 -9 33 -7 26 2 32 7 32 28 0 17 -7 26 -25 31
l-25 7 28 1 c37 1 35 21 -3 21 -18 0 -33 -6 -36 -15z"/>
<path d="M3170 1085 c0 -25 5 -45 10 -45 6 0 10 7 10 15 0 8 8 15 18 15 28 0
43 20 31 42 -6 11 -21 18 -39 18 -29 0 -30 -2 -30 -45z m60 15 c0 -5 -9 -10
-20 -10 -11 0 -20 5 -20 10 0 6 9 10 20 10 11 0 20 -4 20 -10z"/>
<path d="M3292 1118 c-16 -16 -15 -53 3 -68 19 -16 45 -10 61 15 26 39 -31 86
-64 53z m53 -33 c0 -22 -31 -33 -47 -17 -17 17 -1 44 24 40 15 -2 23 -10 23
-23z"/>
<path d="M3390 1085 c0 -25 5 -45 10 -45 6 0 10 7 10 15 0 8 6 15 14 15 8 0
16 -7 20 -15 3 -8 11 -15 17 -15 8 0 8 4 -1 15 -10 12 -10 18 0 30 18 21 -4
45 -41 45 -28 0 -29 -2 -29 -45z m60 15 c0 -5 -9 -10 -20 -10 -11 0 -20 5 -20
10 0 6 9 10 20 10 11 0 20 -4 20 -10z"/>
<path d="M3500 1120 c0 -5 6 -10 14 -10 10 0 16 -13 19 -37 l4 -38 1 38 c1 25
7 37 17 37 8 0 15 5 15 10 0 6 -16 10 -35 10 -19 0 -35 -4 -35 -10z"/>
<path d="M3604 1115 c-8 -21 4 -35 32 -35 13 0 24 -4 24 -10 0 -5 -13 -10 -30
-10 -16 0 -30 -4 -30 -10 0 -16 56 -12 70 5 15 19 -1 42 -33 48 -15 3 -12 5
11 6 44 1 41 21 -3 21 -22 0 -38 -6 -41 -15z"/>
<path d="M2430 1080 c0 -22 5 -40 10 -40 6 0 10 12 10 26 0 22 2 25 15 14 12
-10 18 -10 29 -1 12 10 15 7 19 -16 3 -20 4 -15 6 16 1 43 1 44 -19 26 -19
-17 -21 -17 -38 -2 -27 25 -32 21 -32 -23z"/>
</g>
</svg>
